<svg id="Layer_1" data-name="Layer 1" xmlns="http://www.w3.org/2000/svg" viewBox="0 0 146.53 104.81"><defs><style>.cls-1{fill:#fff;}</style></defs><title>logo</title><path class="cls-1" d="M31.41,26.25a5.35,5.35,0,0,1-1.12,3.25A59.1,59.1,0,0,0,25.78,43,9.6,9.6,0,0,0,26,47.63c.25.5.63.88.88,1.38a18.34,18.34,0,0,0,5.88-3.5A69.87,69.87,0,0,0,55,9.63c.5-2.12,1-4.37.25-6.5A1.54,1.54,0,0,1,57.66,3a3.44,3.44,0,0,1,1.25,2,14.37,14.37,0,0,1-.12,4.63C56,23.5,50.91,36.38,40.28,46.38a26.69,26.69,0,0,1-12.12,6.5,13.19,13.19,0,0,1-3.12.25c-3.75-.25-6-2.5-6.62-6.12-1.25-.12-1.62,1-2.25,1.5-2,2-4,3.88-6.75,4.88A12.31,12.31,0,0,1,3,53.75a3.38,3.38,0,0,1-3-4,24.61,24.61,0,0,1,1.38-6A73.31,73.31,0,0,1,12.66,25.63c1.25-1.37,2.5-2.12,4.37-1.12a4.61,4.61,0,0,1-1.25,3c-2,3.75-4.25,7.38-6.12,11.13a58.38,58.38,0,0,0-3,7.75,15.13,15.13,0,0,0-.5,3.75c1-.5,1.63-.75,2.25-1.12a45.15,45.15,0,0,0,3.75-3.12,68.06,68.06,0,0,0,11.37-14A40.86,40.86,0,0,1,27,27.25C28.16,25.75,29.66,25.63,31.41,26.25Z"/><path class="cls-1" d="M65.41,36.88a11,11,0,0,0,7.75.38,48.52,48.52,0,0,0,16.63-8.87,19.7,19.7,0,0,1,1.88-1.5,7.08,7.08,0,0,1,1.88-.37,5,5,0,0,1,0,1.38,1.94,1.94,0,0,1-.75,1c-5.5,5-11.25,9.88-18.75,11.38a42.73,42.73,0,0,1-5.62.5c-.37,0-.75.13-1.12.13a54.14,54.14,0,0,1,1,6.25A26.72,26.72,0,0,1,66.91,57.5a84.07,84.07,0,0,1-7.75,17.88,42.18,42.18,0,0,1-3.5,4.75c-2.5,2.75-5.75,3.5-9.37,2.75-2.75-.5-4.5-2.12-4.75-5a22.38,22.38,0,0,1,.5-5.75,68.94,68.94,0,0,1,6.75-17c3.5-6.75,7-13.37,10.88-19.87,6.62-10.75,15-20.25,24.12-29,1-.87,2-1.87,3.75-.87-.37.63-.5,1.25-.87,1.75-1.75,2-3.37,4-5.12,5.88a118.78,118.78,0,0,0-15,21c-.37.63-.75,1.38-1.12,2.13ZM49.28,79.25c.63-.5,1-.75,1.25-1a24.06,24.06,0,0,0,2.38-2.87A59,59,0,0,0,63.28,50.75a16.3,16.3,0,0,0,.13-7.37,11.25,11.25,0,0,0-.87-1.75l-1.37,2.5c-1.87,4-4,8-5.62,12-2.12,5.38-4,10.88-6,16.25A11.57,11.57,0,0,0,49.28,79.25Z"/><path class="cls-1" d="M114.28,26.75c-.12.63,0,1.25-.37,1.63a24.82,24.82,0,0,1-2.62,2.5c-5.25,4.88-18.5,16.5-23.87,21.25a11.24,11.24,0,0,0-3.25,5.13A259.29,259.29,0,0,1,68.78,92.5a54.59,54.59,0,0,1-5,8.13A10.05,10.05,0,0,1,61,103.5a6.46,6.46,0,0,1-5.62,1.13,3.6,3.6,0,0,1-2.5-2.5,15.8,15.8,0,0,1-.25-8,40.16,40.16,0,0,1,6.13-15.37A113.92,113.92,0,0,1,74.91,58.63a19.24,19.24,0,0,0,4.38-6.5C81.41,46.5,83.66,40.88,86,35.38a68.22,68.22,0,0,1,6.75-11.75c1-1.37,2.25-2.12,4.38-1-1.5,4-3.12,7.75-4.62,11.63S89.78,41.88,88,46.5l2.75-2c3.88-3,15.62-13,19.5-16A5.23,5.23,0,0,1,114.28,26.75ZM71.16,70.63C65.53,77.5,60.53,84.75,57.78,93.25a26.15,26.15,0,0,0-1,4.25,3.7,3.7,0,0,0,.63,3.13,13.24,13.24,0,0,0,1.25-1.5C63.78,90.13,67.16,80.25,71.16,70.63Zm28-58.87a14.65,14.65,0,0,1,.5-3.37c.62-2.37,1.12-4.87,3-6.75A3.8,3.8,0,0,1,105.53,0a8.15,8.15,0,0,1,1.88.63q-.94,1.5-1.5,2.63C104.66,5.88,103.28,8.38,102,11a7.47,7.47,0,0,1-.75,1.38,1.93,1.93,0,0,1-1.37.38C99.53,12.63,99,12,99.16,11.75Z"/><path class="cls-1" d="M109,51.13c2.38-1.37,4.75-2.37,6.75-3.75,4.75-3.5,9.38-7.12,14-10.75,3.25-2.5,6.38-5,9.63-7.37a41.29,41.29,0,0,1,3.75-2.75c1-.5,2-1,3.38-.12-.37.5-.5,1.13-.87,1.5L125.78,46.25A39.9,39.9,0,0,1,113.9,53.5a19.11,19.11,0,0,1-6,1.38c-3.87.25-6-1.5-6.5-5.5a16.86,16.86,0,0,1,.25-6.12,35.58,35.58,0,0,1,12.5-19.5,13.19,13.19,0,0,1,8.88-3,11.44,11.44,0,0,1,2.13.13c2.88.63,4.38,2.75,3.75,5.5a22.46,22.46,0,0,1-4.5,8.75c-.62.75-1.37.75-2.62.38a8.75,8.75,0,0,0,1.13-2.12,55.32,55.32,0,0,0,2.5-5.62c.63-1.62.88-3.62-.87-4.75s-3.25-.12-4.5,1a26.15,26.15,0,0,0-4.5,4.63,43.62,43.62,0,0,0-7.12,14.75A12,12,0,0,0,109,51.13Z"/></svg>